<svg width="34" height="21" viewBox="0 0 34 21" fill="none" xmlns="http://www.w3.org/2000/svg">
<path d="M11.5661 0.399999H15.2061V13.056C15.2061 14.3253 15.0381 15.4173 14.7021 16.332C14.3661 17.2467 13.8994 18.0027 13.3021 18.6C12.7048 19.1973 11.9768 19.636 11.1181 19.916C10.2594 20.196 9.31676 20.336 8.29009 20.336C3.32476 20.336 0.842094 18.068 0.842094 13.532V0.399999H4.67809V12.776C4.67809 13.5413 4.74343 14.1947 4.87409 14.736C5.02343 15.2587 5.24743 15.688 5.54609 16.024C5.84476 16.3413 6.21809 16.5747 6.66609 16.724C7.11409 16.8547 7.63676 16.92 8.23409 16.92C9.41009 16.92 10.2594 16.5933 10.7821 15.94C11.3048 15.2867 11.5661 14.232 11.5661 12.776V0.399999ZM28.1408 15.66H22.1208L20.6368 20H16.8008L23.8568 0.259999H26.6848L33.7408 20H29.7088L28.1408 15.66ZM23.1008 12.58H27.3008L25.8448 8.212L25.2568 5.132H25.1168L24.5288 8.24L23.1008 12.58Z" fill="white"/>
</svg>
